Coordinates
version=1
nRows=22
nColumns=18
inDegrees=yes

Units are S.I. units (second, meters, Newtons, ...)
If the header above contains a line with 'inDegrees', this indicates whether rotational values are in degrees (yes) or radians (no).

endheader
time	ground_thorax_rot_x	ground_thorax_rot_y	ground_thorax_rot_z	ground_thorax_tx	ground_thorax_ty	ground_thorax_tz	clav_prot	clav_elev	scapula_abduction	scapula_elevation	scapula_upward_rot	scapula_winging	plane_elv	shoulder_elv	axial_rot	elbow_flexion	pro_sup
      2.12000000	      0.38673385	     -7.05239602	    -11.57491264	      0.00000000	      0.00000000	      0.00000000	    -20.84520898	      1.03409049	     11.27976306	     -5.90591725	     44.18555113	     -3.18850436	     59.95482599	     59.77381515	    -21.49079851	      0.00000000	     34.32000000
      2.13000000	      0.18962750	     -7.05487642	    -11.45293063	      0.00000000	      0.00000000	      0.00000000	    -20.88128148	      1.09384771	     11.26988684	     -5.87411936	     44.26947241	     -3.21668964	     59.91182484	     59.98651260	    -21.49634329	      0.00000000	     34.32000000
      2.14000000	      0.26523337	     -6.97076241	    -11.58912317	      0.00000000	      0.00000000	      0.00000000	    -20.98480158	      1.03637049	     11.27485177	     -5.94369504	     44.48779974	     -3.22025777	     59.82558911	     60.45160444	    -19.78557046	      0.00000000	     34.32000000
      2.15000000	      0.10767843	     -6.94221152	    -11.40352401	      0.00000000	      0.00000000	      0.00000000	    -21.02085101	      1.04808033	     11.30359380	     -5.94958888	     44.60635201	     -3.23756911	     59.78709856	     60.68797740	    -19.79279541	      0.00000000	     34.32000000
      2.16000000	      0.05828932	     -6.92693202	    -11.68691715	      0.00000000	      0.00000000	      0.00000000	    -21.14430286	      0.87261865	     11.37678689	     -6.11364981	     44.92082980	     -3.21269914	     59.67876793	     61.33861450	    -18.63227473	      0.00000000	     34.32000000
      2.17000000	     -0.07902467	     -6.94332972	    -11.77059901	      0.00000000	      0.00000000	      0.00000000	    -21.25717212	      0.88278218	     11.31443516	     -6.13008358	     45.09417179	     -3.23135248	     59.73621327	     61.77555093	    -17.53948474	      0.00000000	     34.32000000
      2.18000000	      0.48399070	     -7.54087133	    -11.58930793	      0.00000000	      0.00000000	      0.00000000	    -20.95055628	      1.91169167	     12.41563413	     -5.47846535	     46.06996517	     -3.71531363	     59.08712555	     61.88493492	    -21.46618278	      0.00000000	     34.32000000
      2.19000000	      0.43652527	     -7.37662043	    -11.62716698	      0.00000000	      0.00000000	      0.00000000	    -21.25653126	      1.90809911	     12.05025189	     -5.51819217	     46.28746618	     -3.72048906	     59.11299789	     62.17332807	    -21.64850385	      0.00000000	     34.32000000
      2.20000000	      0.36987574	     -7.45575603	    -11.67832509	      0.00000000	      0.00000000	      0.00000000	    -21.31165766	      1.87256984	     12.15844223	     -5.56934083	     46.53135738	     -3.73686832	     58.85901577	     62.52137388	    -21.68319855	      0.00000000	     34.32000000
      2.21000000	      0.00383355	     -7.34653303	    -11.74960307	      0.00000000	      0.00000000	      0.00000000	    -21.45123444	      1.52715862	     11.86580026	     -5.80794480	     46.38020107	     -3.59888752	     58.93393618	     63.19842840	    -19.79725979	      0.00000000	     34.32000000
      2.22000000	     -0.24513831	     -7.41241157	    -11.59843873	      0.00000000	      0.00000000	      0.00000000	    -21.50999704	      1.56893966	     11.86776889	     -5.79471164	     46.52242934	     -3.62666305	     58.89785373	     63.44978130	    -19.79974810	      0.00000000	     34.32000000
      2.23000000	     -0.22791196	     -7.32670959	    -11.92657672	      0.00000000	      0.00000000	      0.00000000	    -21.80428399	      1.43992579	     11.77134468	     -5.94724559	     47.01038780	     -3.62823610	     58.88661099	     64.15030382	    -18.87795409	      0.00000000	     34.32000000
      2.24000000	     -0.45335122	     -7.33957922	    -11.73153670	      0.00000000	      0.00000000	      0.00000000	    -21.85322498	      1.47876194	     11.79698085	     -5.93563267	     47.15916707	     -3.65644036	     58.86096016	     64.41516079	    -18.88352583	      0.00000000	     34.32000000
      2.25000000	     -0.43005135	     -7.32437796	    -11.97197822	      0.00000000	      0.00000000	      0.00000000	    -22.03277878	      1.44877325	     11.66529765	     -5.98652462	     47.37992444	     -3.66433877	     59.02776446	     65.22641447	    -17.79065352	      0.00000000	     34.32000000
      2.26000000	     -0.62969872	     -7.36750092	    -11.81841030	      0.00000000	      0.00000000	      0.00000000	    -22.08217091	      1.50278627	     11.67857083	     -5.96296954	     47.51839715	     -3.69632520	     59.01207305	     65.43551136	    -17.80012648	      0.00000000	     34.32000000
      2.27000000	     -0.54867975	     -7.32169720	    -12.06988566	      0.00000000	      0.00000000	      0.00000000	    -22.37086799	      1.54638996	     11.48499671	     -5.98283613	     47.91994676	     -3.74620519	     59.08538265	     65.95526219	    -16.89011008	      0.00000000	     34.32000000
      2.28000000	     -0.59298679	     -7.30422379	    -11.89316163	      0.00000000	      0.00000000	      0.00000000	    -22.47814002	      1.79159452	     11.48754454	     -5.84051265	     48.22294540	     -3.85819093	     58.76431223	     66.18819331	    -16.97315438	      0.00000000	     34.32000000
      2.29000000	     -0.81171384	     -7.35337057	    -11.79908938	      0.00000000	      0.00000000	      0.00000000	    -22.53271621	      1.87377414	     11.48591131	     -5.79687578	     48.36189311	     -3.89863059	     58.71624491	     66.40687612	    -16.98247350	      0.00000000	     34.32000000
      2.30000000	      0.21800012	     -7.73146009	    -11.93461303	      0.00000000	      0.00000000	      0.00000000	    -22.76393088	      3.09467205	     12.04718360	     -5.06678619	     49.88373797	     -4.43511703	     58.63997209	     66.49206527	    -17.05129521	      0.00000000	     34.32000000
      2.31000000	     -0.21624018	     -7.71429504	    -11.99702559	      0.00000000	      0.00000000	      0.00000000	    -22.84294832	      2.66920618	     11.72921788	     -5.34640307	     49.54963542	     -4.27167462	     58.94489481	     67.27264063	    -15.82758433	      0.00000000	     34.32000000
      2.32000000	     -0.41386471	     -7.79540393	    -11.83645119	      0.00000000	      0.00000000	      0.00000000	    -22.90233570	      2.69852900	     11.72839283	     -5.33920174	     49.68478575	     -4.29387914	     58.91755172	     67.46807176	    -15.83934920	      0.00000000	     34.32000000
      2.33000000	      0.08674007	     -8.22327602	    -12.01101377	      0.00000000	      0.00000000	      0.00000000	    -22.94311872	      3.23070519	     12.48076448	     -5.04893509	     50.83137000	     -4.56752075	     58.28290874	     67.66246836	    -19.06826923	      0.00000000	     34.32000000
